<!DOCTYPE svg PUBLIC "-//W3C//DTD SVG 20010904//EN" "http://www.w3.org/TR/2001/REC-SVG-20010904/DTD/svg10.dtd">
<svg version="1.0" xmlns="http://www.w3.org/2000/svg" width="1000px" height="500px" viewBox="0 0 10000 5000" preserveAspectRatio="xMidYMid meet">
<defs>
    <linearGradient id="grad1" x1="0%" y1="0%" x2="0%" y2="100%">
      <stop offset="0%" style="stop-color:rgb(235,135,111);stop-opacity:1" />
      <stop offset="100%" style="stop-color:rgb(245,170,106);stop-opacity:1" />
    </linearGradient>
</defs>


<g id="layer101" fill="#8c5397" stroke="none">
 <path d="M0 2500 l0 -2500 5000 0 5000 0 0 2500 0 2500 -5000 0 -5000 0 0 -2500z"/>
 </g>
 
<g id="layer102" fill="#a85b95" stroke="none">
 <path d="M9085 3134 c-27 -7 -56 -11 -64 -8 -14 5 -55 -6 -187 -47 -34 -11 -72 -31 -84 -44 -13 -14 -31 -23 -39 -20 -9 2 -34 -11 -56 -30 -22 -19 -56 -40 -75 -47 -19 -6 -50 -20 -69 -30 -22 -12 -36 -16 -40 -9 -7 11 -73 41 -90 41 -6 0 -25 -13 -43 -29 -20 -17 -44 -29 -61 -29 -17 0 -39 -10 -56 -26 -27 -25 -28 -26 -59 -10 -39 19 -77 12 -116 -21 -35 -30 -37 -30 -66 -5 -26 22 -41 25 -56 10 -7 -7 -23 -1 -50 19 -21 15 -50 31 -64 35 -14 3 -45 24 -68 46 -24 22 -52 40 -63 40 -10 0 -19 5 -19 10 0 6 -13 10 -30 10 -16 0 -52 9 -80 19 -50 19 -50 19 -107 -2 -32 -11 -91 -37 -131 -57 -40 -21 -75 -33 -78 -29 -9 15 -53 10 -96 -11 -29 -14 -46 -17 -58 -10 -12 7 -28 5 -51 -7 -18 -9 -47 -16 -66 -15 -34 1 -119 -38 -180 -84 l-31 -24 -59 31 c-32 18 -69 38 -83 45 -14 8 -33 14 -42 14 -9 0 -20 5 -23 10 -3 6 -16 10 -28 10 -12 1 -40 7 -62 15 -35 13 -46 13 -92 -2 -29 -9 -53 -20 -53 -24 0 -4 -24 -16 -52 -27 -29 -11 -75 -32 -103 -46 -47 -26 -52 -26 -90 -13 -58 21 -129 39 -146 37 -25 -4 -36 0 -59 20 -13 11 -29 20 -35 20 -7 0 -26 7 -41 15 -39 20 -54 19 -94 -8 -38 -27 -66 -23 -149 20 -47 25 -76 29 -86 13 -6 -10 -42 8 -85 45 -44 37 -81 50 -137 48 -36 -2 -62 3 -78 13 -20 13 -31 14 -55 5 -25 -8 -37 -7 -66 9 -42 24 -67 25 -85 4 -9 -11 -21 -14 -43 -9 -17 4 -44 9 -61 11 -90 10 -161 26 -215 49 -54 23 -62 24 -92 11 -86 -36 -133 -46 -167 -36 -35 10 -74 -1 -115 -33 -16 -11 -27 -12 -50 -4 -17 5 -35 14 -41 18 -13 12 -49 11 -80 -3 -26 -12 -25 -12 -152 27 -51 15 -54 15 -104 -10 -29 -13 -55 -22 -59 -20 -5 3 -23 -1 -41 -9 -22 -9 -40 -11 -51 -5 -11 6 -26 4 -45 -5 -15 -8 -46 -22 -68 -32 -22 -9 -48 -23 -58 -32 -13 -12 -22 -13 -41 -4 -19 8 -38 7 -88 -9 -34 -10 -70 -19 -79 -19 -9 0 -42 -11 -73 -25 -31 -14 -74 -28 -96 -31 -22 -4 -43 -11 -46 -16 -4 -5 -10 -5 -17 0 -28 22 -63 21 -107 -3 -133 -71 -192 -95 -216 -89 -20 5 -33 0 -59 -26 l-33 -32 -56 26 -56 26 -63 -40 c-35 -22 -69 -50 -76 -63 -19 -36 -74 -67 -97 -54 -10 6 -21 13 -24 16 -3 4 -24 19 -47 34 -44 28 -68 34 -78 17 -3 -5 -22 2 -42 15 -41 28 -85 32 -103 10 -7 -8 -17 -15 -22 -15 -9 0 -84 55 -103 76 -21 23 -60 44 -81 44 -12 0 -24 4 -26 9 -9 28 -114 141 -130 141 -10 0 -18 -4 -18 -10 0 -18 -17 -11 -80 31 -39 26 -69 39 -81 36 -11 -3 -25 0 -32 6 -17 16 -77 44 -109 51 -37 8 -103 -19 -160 -66 -26 -22 -52 -37 -58 -33 -9 5 -49 -10 -60 -24 -20 -25 -79 -58 -87 -50 -11 11 -59 -11 -124 -58 -26 -18 -55 -33 -65 -33 -11 0 -32 -7 -49 -16 -16 -9 -43 -16 -58 -15 -33 2 -90 -23 -131 -56 -21 -18 -31 -21 -42 -12 -10 8 -23 4 -57 -21 l-44 -31 -37 17 c-35 17 -39 17 -84 0 -26 -11 -61 -21 -79 -23 -18 -3 -38 -11 -44 -19 -6 -8 -17 -14 -23 -14 -7 0 -25 -14 -41 -30 -16 -17 -31 -27 -34 -23 -3 5 -16 17 -28 27 l-23 19 0 -1141 0 -1142 5000 0 5000 0 0 1239 0 1240 -80 30 c-44 17 -83 30 -87 29 -5 0 -15 1 -23 5 -8 3 -27 8 -42 11 -14 3 -42 21 -61 39 -49 48 -174 147 -186 147 -5 0 -22 11 -38 23 -31 26 -90 50 -103 42 -5 -3 -12 -1 -15 5 -4 6 -15 8 -25 5 -9 -3 -30 0 -46 6 -16 6 -49 12 -74 14 -25 1 -54 5 -65 8 -11 3 -42 -1 -70 -9z"/>
 </g>
<g id="layer103" fill="#d06886" stroke="none">
 <path d="M6405 2565 c-79 -21 -108 -34 -137 -62 -14 -14 -32 -23 -40 -21 -7 3 -35 -12 -62 -33 -27 -22 -54 -39 -60 -39 -6 -1 -33 -11 -61 -24 -40 -19 -53 -21 -65 -12 -17 13 -66 36 -79 36 -5 0 -24 -13 -42 -30 -21 -18 -45 -30 -63 -30 -19 0 -41 -10 -58 -27 -20 -19 -31 -23 -40 -16 -7 6 -26 13 -43 17 -30 6 -46 0 -98 -37 -26 -19 -27 -19 -62 3 -28 17 -39 19 -50 10 -11 -9 -21 -7 -47 12 -18 13 -34 26 -36 31 -2 4 -13 7 -25 7 -12 0 -45 20 -72 45 -28 25 -58 45 -67 45 -9 0 -19 4 -22 9 -3 4 -26 11 -51 14 -25 4 -58 13 -74 21 -26 14 -34 13 -87 -6 -32 -12 -91 -38 -131 -58 -45 -23 -77 -33 -85 -28 -21 13 -45 9 -93 -13 -34 -16 -48 -19 -59 -10 -10 8 -24 6 -58 -9 -24 -10 -53 -17 -64 -14 -21 6 -112 -39 -171 -84 l-33 -24 -47 23 c-27 12 -58 30 -71 40 -13 10 -55 27 -95 39 -40 12 -84 25 -99 30 -30 9 -112 -13 -135 -36 -7 -7 -30 -18 -50 -25 -35 -11 -90 -36 -136 -60 -12 -7 -23 -7 -30 0 -15 11 -109 33 -158 35 -20 1 -47 9 -60 17 -34 23 -115 59 -131 59 -7 0 -30 -11 -50 -25 -40 -27 -40 -27 -137 17 -46 21 -72 27 -95 22 -26 -4 -39 0 -62 19 -60 50 -96 67 -118 55 -12 -7 -35 -11 -51 -10 -21 2 -41 -7 -65 -26 l-34 -29 -40 24 c-23 12 -49 23 -58 23 -27 0 -100 -51 -156 -108 -55 -56 -79 -63 -107 -32 -10 11 -24 20 -32 20 -7 0 -13 4 -13 8 0 4 -13 16 -30 25 -22 13 -35 15 -47 8 -13 -7 -26 -5 -48 8 -50 30 -80 33 -100 11 -10 -11 -22 -20 -26 -20 -4 0 -36 24 -71 53 -80 68 -96 76 -144 75 -21 -1 -54 6 -73 15 -40 20 -61 21 -94 6 -19 -9 -41 -7 -93 5 -38 9 -78 22 -90 27 -16 8 -32 5 -74 -15 -29 -14 -56 -23 -60 -21 -4 3 -24 -2 -45 -11 -28 -11 -40 -12 -51 -3 -10 8 -18 8 -26 1 -7 -6 -33 -18 -58 -28 -25 -9 -58 -26 -73 -37 -23 -16 -33 -17 -52 -9 -18 8 -38 6 -87 -9 -34 -10 -70 -19 -78 -19 -8 0 -42 -11 -75 -24 -88 -36 -153 -54 -162 -46 -23 21 -61 18 -104 -6 -103 -58 -193 -95 -217 -89 -19 5 -32 -1 -58 -26 l-34 -33 -42 21 c-64 31 -71 32 -100 11 l-28 -19 0 -1085 0 -1084 5000 0 5000 0 0 1200 c0 723 -4 1200 -9 1200 -5 0 -23 -8 -39 -17 -28 -16 -31 -16 -80 5 -28 12 -60 22 -72 22 -22 0 -181 -59 -190 -71 -3 -3 -18 -9 -34 -13 -15 -4 -52 -25 -80 -46 -29 -22 -57 -40 -62 -40 -5 -1 -24 -14 -43 -30 -38 -32 -45 -31 -98 19 -43 39 -66 45 -102 27 -44 -23 -57 -20 -106 25 -40 37 -48 41 -69 31 -21 -9 -29 -5 -72 39 -28 29 -54 47 -63 44 -7 -3 -19 -1 -26 5 -13 11 -85 -10 -112 -31 -10 -9 -23 -5 -54 17 -81 57 -114 73 -147 72 -18 -1 -38 4 -44 10 -7 7 -18 7 -37 0 -70 -29 -97 -42 -111 -53 -8 -7 -51 -26 -95 -41 -44 -16 -91 -39 -105 -54 -22 -23 -91 -76 -156 -120 -12 -8 -48 -35 -80 -59 -97 -74 -103 -76 -171 -45 -32 14 -101 56 -153 93 -52 37 -111 73 -130 80 -19 7 -50 20 -68 28 -18 8 -36 11 -41 8 -5 -3 -13 0 -16 6 -4 5 -13 8 -21 5 -15 -6 -70 32 -185 127 -44 37 -87 67 -95 67 -7 0 -24 11 -38 25 -39 39 -65 40 -132 4 -32 -17 -69 -41 -82 -52 -20 -19 -26 -20 -60 -8 -20 7 -52 24 -69 38 -35 25 -142 63 -177 62 -11 0 -43 -6 -71 -14z"/>
 </g>
<g id="layer104" fill="#F5AB6A" stroke="none">
 <path d="M3746 2095 c-30 -12 -70 -31 -88 -42 -28 -16 -38 -17 -68 -7 -87 29 -112 35 -143 36 -17 0 -43 7 -57 15 -23 13 -30 13 -64 -1 -21 -9 -46 -16 -56 -16 -10 0 -37 -16 -59 -35 -25 -20 -48 -32 -57 -28 -9 3 -27 -5 -42 -20 -15 -14 -62 -41 -104 -61 l-77 -36 -50 26 -51 25 -44 -36 c-27 -22 -49 -33 -60 -29 -9 4 -28 -4 -47 -20 -23 -20 -37 -25 -53 -19 -45 17 -101 9 -135 -19 -27 -24 -61 -29 -61 -9 0 3 -9 12 -20 19 -15 9 -24 9 -38 1 -15 -10 -26 -6 -62 20 -24 17 -49 31 -57 31 -7 0 -32 17 -56 38 -46 42 -111 72 -157 72 -16 0 -44 9 -61 19 -23 14 -37 17 -50 10 -11 -5 -28 -13 -39 -19 -11 -5 -25 -10 -30 -10 -6 0 -47 -18 -91 -40 -67 -34 -83 -38 -103 -28 -20 9 -33 6 -75 -14 -35 -18 -53 -22 -60 -15 -8 8 -25 6 -60 -7 -27 -10 -58 -17 -68 -16 -32 4 -38 1 -123 -50 l-83 -51 -40 16 c-21 9 -53 26 -71 39 -33 24 -156 66 -217 73 -34 5 -71 -8 -129 -42 -33 -20 -136 -65 -148 -65 -5 0 -15 -7 -22 -15 -8 -10 -17 -12 -30 -5 -21 11 -161 45 -177 42 -6 -1 -46 16 -89 38 -82 42 -97 43 -145 8 -26 -20 -50 -18 -111 7 -17 7 -18 -46 -18 -1034 l0 -1041 5000 0 5000 0 0 1133 0 1133 -82 19 c-119 28 -129 26 -257 -40 -42 -21 -47 -21 -80 -8 -42 18 -90 12 -129 -15 -26 -18 -63 -31 -107 -35 -11 -2 -33 -10 -50 -18 -68 -36 -96 -40 -159 -20 -57 17 -61 17 -115 0 -31 -10 -70 -23 -87 -30 -27 -11 -34 -10 -49 4 -15 16 -19 15 -63 -7 l-46 -23 -81 34 c-44 19 -101 42 -127 50 -43 14 -48 14 -63 -1 -20 -20 -61 -41 -96 -49 -14 -4 -47 -23 -72 -42 -46 -35 -70 -39 -102 -15 -5 4 -25 12 -44 18 -30 11 -39 9 -100 -25 -36 -20 -80 -47 -96 -59 -22 -16 -35 -20 -47 -13 -11 6 -19 6 -23 -1 -5 -8 -11 -8 -19 0 -10 7 -26 0 -62 -28 -47 -37 -119 -81 -156 -95 -12 -4 -33 6 -63 29 -61 46 -186 106 -200 94 -6 -5 -18 -3 -29 6 -11 8 -26 14 -34 14 -8 0 -27 9 -43 21 -17 12 -43 22 -59 23 -15 1 -47 15 -71 31 -23 17 -51 29 -61 27 -11 -2 -28 4 -39 14 -10 9 -31 17 -46 16 -74 -1 -147 -12 -168 -26 -22 -14 -28 -14 -79 10 -49 22 -60 24 -98 14 -44 -12 -85 -28 -151 -61 -21 -10 -44 -19 -52 -19 -7 0 -34 -15 -58 -34 -25 -19 -58 -41 -74 -49 -15 -8 -37 -24 -47 -36 -26 -29 -34 -27 -90 19 -53 44 -72 48 -117 24 -28 -14 -32 -14 -62 5 -18 11 -43 31 -56 45 -19 20 -28 23 -42 15 -25 -13 -49 0 -88 48 -28 34 -33 36 -90 37 -50 1 -64 -3 -85 -23 l-25 -24 -38 29 c-21 15 -40 31 -43 35 -12 15 -75 41 -113 45 -77 8 -84 7 -178 -39 -79 -38 -119 -55 -149 -62 -26 -7 -60 -27 -67 -38 -10 -18 -110 -98 -144 -115 -14 -7 -38 -25 -55 -40 -30 -28 -66 -54 -115 -84 -28 -17 -30 -17 -105 23 -42 21 -94 54 -116 71 -93 73 -195 123 -278 135 -48 7 -82 26 -134 76 -46 43 -103 87 -161 122 -18 11 -43 28 -56 37 -13 9 -43 21 -66 26 -34 8 -51 6 -97 -13z"/>
 </g>


</svg>